<?xml version="1.0" standalone="no"?>
<!DOCTYPE svg PUBLIC "-//W3C//DTD SVG 20010904//EN"
 "http://www.w3.org/TR/2001/REC-SVG-20010904/DTD/svg10.dtd">
<svg version="1.0" xmlns="http://www.w3.org/2000/svg"
 width="700.000000pt" height="700.000000pt" viewBox="0 0 700.000000 700.000000"
 preserveAspectRatio="xMidYMid meet">
<metadata>
Created by potrace 1.11, written by Peter Selinger 2001-2013
</metadata>
<g transform="translate(0.000000,700.000000) scale(0.100000,-0.100000)"
fill="#000000" stroke="none">
<path d="M3380 6993 c-193 -33 -363 -127 -528 -292 -85 -85 -208 -242 -256
-327 -9 -16 -26 -45 -38 -64 -75 -126 -181 -363 -249 -560 -22 -63 -44 -119
-48 -123 -4 -4 -30 -3 -57 3 -84 20 -234 43 -414 66 -25 3 -142 7 -260 9 -171
2 -240 -1 -335 -16 -344 -52 -584 -182 -727 -393 -229 -336 -169 -790 174
-1313 84 -127 252 -345 336 -435 l44 -47 -64 -73 c-275 -310 -484 -648 -570
-923 -69 -220 -73 -441 -12 -620 109 -323 425 -532 879 -582 91 -10 419 -10
515 0 41 5 93 10 115 12 22 3 50 7 62 9 11 3 43 8 70 12 26 3 57 8 68 10 11 2
34 7 50 10 17 3 50 10 74 15 24 5 48 6 52 2 4 -4 23 -53 42 -108 226 -653 550
-1081 919 -1214 47 -17 81 -27 128 -38 48 -10 204 -13 255 -4 100 17 114 21
166 41 229 91 420 261 604 540 119 180 272 504 340 720 10 30 21 58 24 63 4 4
32 2 62 -4 115 -22 202 -37 259 -44 25 -3 56 -7 70 -10 133 -26 657 -26 700 0
3 1 26 6 51 9 53 7 179 44 257 75 223 89 388 247 473 454 17 39 32 87 35 106
3 18 8 43 11 55 12 48 10 236 -2 309 -29 163 -96 348 -184 506 -23 41 -41 78
-41 82 0 5 -4 9 -10 9 -5 0 -10 5 -10 10 0 32 -229 342 -367 498 l-65 72 65
73 c138 155 292 367 404 552 66 109 168 355 188 454 2 9 9 39 15 66 29 124 20
321 -23 461 -56 186 -214 362 -415 463 -119 60 -300 110 -467 128 -129 15
-514 7 -611 -11 -12 -2 -45 -7 -75 -11 -30 -4 -112 -17 -184 -30 -71 -13 -133
-21 -136 -17 -4 4 -14 32 -24 62 -10 30 -42 117 -71 192 -237 602 -580 996
-954 1094 -62 16 -254 26 -310 17z m260 -491 c185 -84 358 -313 535 -707 35
-79 106 -279 102 -289 -3 -6 -31 -20 -63 -30 -109 -33 -440 -155 -572 -211
-73 -30 -137 -55 -143 -55 -9 0 -81 29 -174 70 -11 5 -69 28 -130 50 -60 23
-119 46 -130 50 -32 14 -184 66 -260 90 -38 12 -74 26 -79 31 -8 7 37 145 79
244 7 17 23 55 36 85 65 154 176 345 264 455 111 139 248 235 355 247 45 5
134 -10 180 -30z m-1970 -1266 c83 -6 255 -28 315 -39 11 -3 50 -10 87 -17 61
-11 68 -14 64 -34 -2 -11 -13 -66 -25 -121 -20 -98 -64 -356 -75 -445 -4 -25
-11 -85 -17 -133 l-12 -88 -134 -101 c-115 -85 -357 -279 -373 -297 -3 -3 -38
-35 -77 -69 l-73 -64 -25 29 c-116 128 -280 350 -362 488 -134 227 -195 468
-153 603 52 164 245 269 531 288 52 3 95 7 96 8 4 3 137 -1 233 -8z m4045 1
c11 -2 40 -7 65 -11 99 -16 239 -71 291 -114 64 -52 112 -123 125 -183 39
-186 -77 -495 -301 -799 -22 -30 -42 -57 -45 -60 -3 -3 -24 -30 -47 -60 -46
-60 -78 -98 -124 -148 l-31 -32 -66 57 c-37 32 -76 66 -87 76 -55 50 -235 195
-361 290 l-141 106 -7 68 c-4 37 -8 79 -10 93 -2 14 -7 50 -11 80 -11 83 -13
93 -19 125 -3 17 -10 62 -16 100 -6 39 -17 102 -25 140 -8 39 -16 81 -19 95
-2 14 -9 44 -14 68 -7 32 -7 44 1 47 12 4 204 38 277 49 19 3 69 8 110 12 41
3 77 8 79 10 5 4 349 -4 376 -9z m-2928 -252 l152 -51 -72 -39 c-40 -21 -100
-56 -135 -77 -34 -21 -64 -38 -67 -38 -3 0 -34 -18 -70 -40 -64 -39 -65 -40
-65 -16 0 14 7 56 15 95 8 39 17 83 20 98 24 133 25 134 48 127 12 -4 90 -30
174 -59z m1623 61 c0 -2 11 -57 24 -122 13 -66 27 -139 31 -164 4 -24 9 -48
11 -52 9 -14 -6 -9 -47 18 -52 32 -132 78 -301 171 -67 37 -72 42 -46 47 7 2
20 6 28 9 8 4 74 27 145 52 121 41 155 50 155 41z m-731 -440 c92 -46 191 -98
219 -115 29 -17 55 -31 57 -31 3 0 39 -20 81 -45 41 -25 77 -45 79 -45 5 0
286 -174 364 -225 63 -41 71 -51 72 -78 0 -18 3 -70 7 -117 17 -213 4 -1010
-16 -1047 -24 -41 -563 -359 -862 -508 -52 -25 -111 -55 -131 -66 -20 -10 -42
-19 -48 -19 -13 0 -226 105 -356 175 -214 115 -602 348 -672 403 -20 15 -23
30 -30 137 -17 261 -7 1017 14 1071 3 7 26 27 51 43 215 133 386 238 432 264
30 17 69 38 86 48 165 92 454 238 473 239 7 0 89 -38 180 -84z m-1714 -1105
c0 -158 -3 -237 -10 -233 -12 7 -142 113 -170 138 -11 11 -39 35 -61 55 -23
20 -39 41 -35 45 14 20 265 234 274 234 1 0 2 -108 2 -239z m3135 190 c48 -38
94 -79 171 -149 l48 -44 -52 -45 c-100 -88 -112 -98 -162 -139 -28 -22 -54
-43 -60 -46 -7 -4 -10 76 -10 232 0 161 3 236 10 232 5 -3 30 -22 55 -41z
m-3704 -559 c22 -20 67 -59 99 -87 32 -27 63 -55 69 -60 28 -26 299 -237 367
-285 l77 -55 11 -95 c7 -52 14 -111 17 -130 3 -19 7 -51 10 -70 2 -19 9 -60
14 -90 5 -30 12 -71 15 -90 3 -19 17 -93 31 -165 14 -71 28 -140 30 -151 4
-22 4 -22 -81 -38 -11 -2 -38 -7 -60 -11 -67 -12 -77 -14 -160 -24 -173 -23
-397 -30 -505 -17 -25 3 -65 8 -90 11 -127 16 -269 74 -339 140 -105 98 -128
213 -80 403 29 116 64 198 147 342 68 118 151 235 256 363 45 54 90 109 100
123 11 13 22 24 25 24 4 0 24 -17 47 -38z m4359 -82 c326 -391 494 -771 435
-990 -39 -149 -201 -255 -449 -292 -119 -18 -511 -14 -591 7 -8 2 -33 7 -55
10 -59 9 -105 16 -129 21 -11 2 -37 7 -56 10 -19 4 -38 8 -41 10 -3 2 7 65 22
141 16 76 31 156 34 178 3 22 10 63 15 90 5 28 11 70 15 95 3 25 7 56 10 70 3
14 7 52 10 85 3 33 8 69 10 80 2 11 4 32 4 47 1 23 19 41 104 104 137 104 297
230 341 269 6 6 34 29 62 52 27 23 72 62 100 87 27 25 52 45 56 43 4 -1 50
-54 103 -117z m-3118 -813 c59 -35 144 -83 188 -106 44 -24 86 -49 93 -56 10
-9 -22 -23 -155 -68 -92 -31 -168 -55 -170 -54 -1 1 -4 14 -7 27 -2 14 -14 68
-25 120 -11 52 -23 115 -26 140 -4 24 -9 48 -11 52 -9 15 5 8 113 -55z m1838
51 c-2 -7 -18 -85 -35 -173 -17 -88 -33 -161 -35 -164 -4 -4 -202 61 -298 97
l-48 18 103 57 c57 31 148 83 203 116 107 64 117 68 110 49z m-818 -559 c186
-76 301 -119 473 -176 74 -24 139 -48 143 -52 14 -14 -80 -264 -161 -431 -186
-383 -406 -601 -608 -602 -268 -1 -552 355 -764 960 -12 35 -18 68 -14 72 5 4
71 29 147 54 170 56 279 97 467 175 80 33 150 60 157 60 6 1 78 -26 160 -60z"/>
<path d="M3365 4184 c-148 -31 -252 -89 -360 -198 -87 -88 -137 -171 -175
-291 -30 -94 -34 -248 -9 -353 57 -247 262 -455 509 -519 87 -22 254 -22 340
0 244 64 444 264 507 507 27 103 22 275 -9 372 -38 116 -92 204 -177 289 -102
101 -231 172 -358 194 -69 13 -207 12 -268 -1z m230 -473 c147 -67 182 -257
70 -375 -85 -87 -241 -88 -329 0 -88 88 -87 244 0 329 67 64 178 84 259 46z"/>
</g>
</svg>
