<?xml version="1.0" standalone="no"?>
<!DOCTYPE svg PUBLIC "-//W3C//DTD SVG 20010904//EN"
 "http://www.w3.org/TR/2001/REC-SVG-20010904/DTD/svg10.dtd">
<svg version="1.0" xmlns="http://www.w3.org/2000/svg"
 width="700.000000pt" height="700.000000pt" viewBox="0 0 700.000000 700.000000"
 preserveAspectRatio="xMidYMid meet">
<metadata>
Created by potrace 1.11, written by Peter Selinger 2001-2013
</metadata>
<g transform="translate(0.000000,700.000000) scale(0.100000,-0.100000)"
fill="#000000" stroke="none">
<path d="M3345 6983 c-151 -32 -305 -119 -397 -225 -115 -132 -175 -185 -235
-208 -84 -31 -171 -29 -270 9 -109 41 -139 49 -216 59 -359 46 -697 -170 -810
-519 -14 -42 -30 -112 -37 -155 -28 -197 -148 -318 -336 -339 -78 -10 -79 -10
-153 -35 -242 -81 -414 -250 -492 -482 -27 -78 -32 -111 -35 -209 -4 -125 11
-206 71 -369 23 -63 27 -86 23 -142 -7 -97 -52 -183 -126 -245 -193 -162 -275
-288 -316 -483 -15 -72 -16 -247 -2 -309 40 -180 141 -337 291 -455 68 -53 92
-81 123 -146 23 -47 27 -68 27 -145 0 -79 -4 -99 -32 -165 -107 -254 -73 -540
91 -757 89 -118 215 -207 368 -261 46 -16 85 -30 88 -30 23 1 125 -17 167 -29
57 -16 137 -73 172 -122 32 -45 59 -110 66 -161 3 -25 8 -56 10 -70 3 -14 7
-36 10 -49 29 -152 145 -334 286 -447 102 -83 282 -144 424 -147 145 -2 197 9
375 76 51 20 82 25 145 23 108 -1 174 -33 247 -119 124 -145 191 -200 308
-255 159 -74 311 -88 513 -47 52 10 157 57 219 97 62 40 149 123 225 215 57
68 127 103 225 110 63 5 83 2 148 -22 183 -66 241 -78 360 -79 163 0 331 57
460 157 157 123 268 328 294 547 14 114 89 223 188 273 31 15 92 32 148 42
113 18 183 40 265 82 140 72 253 182 324 314 61 115 82 195 86 329 4 131 -8
199 -57 328 -28 74 -33 100 -33 172 0 71 4 94 26 140 27 58 70 108 130 152
137 101 245 274 284 455 18 84 13 253 -10 338 -21 78 -76 195 -123 259 -39 54
-117 131 -179 176 -43 32 -70 66 -103 130 -36 69 -37 190 -4 278 80 207 93
346 49 518 -22 86 -78 215 -96 222 -5 2 -9 10 -9 17 0 19 -137 157 -193 195
-106 70 -244 122 -365 136 -84 9 -155 39 -209 89 -71 63 -101 126 -124 255
-21 119 -46 194 -92 280 -181 336 -596 487 -951 345 -36 -14 -78 -29 -93 -32
-52 -12 -138 -6 -197 12 -62 20 -103 55 -233 200 -97 108 -219 182 -365 221
-85 22 -255 26 -343 7z m368 -1237 c37 -4 76 -9 85 -11 9 -1 37 -6 62 -9 25
-4 52 -8 60 -10 8 -1 33 -6 55 -10 208 -40 502 -159 715 -291 82 -51 245 -171
287 -211 11 -10 42 -40 69 -65 248 -234 435 -512 559 -834 123 -317 170 -648
142 -995 -4 -47 -8 -94 -11 -105 -2 -11 -7 -42 -10 -70 -48 -334 -219 -725
-445 -1015 -36 -47 -73 -92 -81 -101 -8 -8 -39 -41 -67 -71 -54 -58 -200 -190
-269 -243 -276 -213 -695 -393 -1009 -431 -27 -4 -53 -8 -57 -10 -11 -7 -207
-18 -313 -18 -96 1 -238 9 -280 18 -11 2 -42 7 -70 11 -83 12 -292 63 -350 85
-11 5 -58 23 -105 41 -156 59 -414 201 -519 285 -9 7 -43 34 -76 60 -191 152
-386 374 -513 585 -286 478 -387 1013 -292 1561 22 132 68 297 112 412 60 152
200 416 265 496 6 8 32 42 56 75 266 358 707 660 1152 790 78 23 312 71 355
73 44 3 175 15 177 16 6 5 254 -2 316 -8z"/>
<path d="M3408 5345 c-2 -1 -38 -5 -81 -9 -550 -46 -1064 -358 -1372 -830
-483 -740 -373 -1715 263 -2329 91 -88 84 -82 157 -138 272 -210 620 -346 963
-377 134 -12 339 -5 449 14 411 73 768 260 1038 544 83 87 99 106 157 184 547
737 466 1767 -188 2408 -109 107 -172 157 -294 238 -204 134 -443 226 -715
274 -72 13 -367 29 -377 21z m932 -1327 c65 -33 110 -104 110 -173 0 -29 -7
-69 -15 -89 -18 -42 -995 -1025 -1045 -1051 -53 -27 -120 -30 -172 -7 -62 27
-710 674 -727 724 -29 87 -12 166 46 223 64 62 154 76 234 35 20 -10 146 -127
279 -259 133 -133 244 -241 246 -241 2 0 188 183 412 408 224 224 423 417 442
428 51 30 133 31 190 2z"/>
</g>
</svg>
